<?xml version="1.0" standalone="no"?>
<!DOCTYPE svg PUBLIC "-//W3C//DTD SVG 20010904//EN"
 "http://www.w3.org/TR/2001/REC-SVG-20010904/DTD/svg10.dtd">
<svg version="1.0" xmlns="http://www.w3.org/2000/svg"
 width="585.000000pt" height="457.000000pt" viewBox="0 0 585.000000 457.000000"
 preserveAspectRatio="xMidYMid meet">
<metadata>
Created by potrace 1.16, written by Peter Selinger 2001-2019
</metadata>
<g transform="translate(0.000000,457.000000) scale(0.100000,-0.100000)"
fill="#000000" stroke="none">
<path d="M1533 3903 c-61 -21 -136 -92 -164 -155 -20 -47 -23 -72 -27 -228
l-4 -175 -74 -70 -74 -70 0 -68 c0 -83 14 -111 74 -157 26 -19 49 -43 51 -55
2 -11 6 -99 7 -196 l3 -177 35 -68 c38 -73 97 -124 168 -144 21 -5 145 -10
280 -10 229 0 243 1 262 20 29 29 26 74 -6 99 -25 20 -39 21 -256 21 -259 0
-281 5 -320 69 -21 33 -23 50 -28 236 -6 225 -6 227 -87 299 -23 21 -43 46
-43 55 0 9 25 38 55 64 86 76 89 83 95 299 6 207 9 217 80 266 32 22 39 22
326 22 161 0 295 -3 298 -8 2 -4 -45 -119 -105 -256 -60 -137 -109 -259 -109
-272 0 -53 67 -82 109 -46 19 16 272 569 286 625 7 26 -4 54 -31 81 -13 14
-61 16 -387 15 -303 0 -380 -3 -414 -16z"/>
<path d="M3626 3899 c-30 -23 -34 -63 -10 -94 14 -19 30 -20 264 -25 231 -5
251 -6 276 -26 67 -49 69 -57 74 -277 6 -228 7 -235 84 -303 25 -23 46 -48 46
-57 0 -8 -22 -34 -50 -57 -90 -75 -94 -88 -100 -300 -6 -205 -14 -232 -76
-271 -29 -18 -52 -19 -327 -19 -163 0 -298 3 -300 8 -3 4 44 117 104 252 60
135 108 257 109 272 0 54 -78 84 -117 45 -16 -17 -283 -621 -283 -641 0 -31
21 -57 55 -72 27 -11 100 -14 348 -14 403 0 455 9 539 97 69 71 81 115 87 316
l6 179 35 32 c19 17 44 38 56 46 41 30 54 61 54 135 l0 70 -64 60 -64 60 -4
190 c-4 170 -7 195 -27 240 -38 85 -105 141 -193 163 -29 7 -134 12 -271 12
-212 0 -226 -1 -251 -21z"/>
<path d="M1133 1426 c-24 -21 -27 -31 -27 -81 0 -50 3 -60 27 -81 25 -21 38
-24 116 -24 70 0 93 -4 109 -17 43 -38 31 -141 -18 -154 -32 -9 -138 -9 -170
0 -23 6 -41 31 -55 75 -11 37 -25 2 -14 -37 16 -57 38 -67 157 -67 96 0 105 2
127 25 21 20 25 34 25 83 0 94 -14 105 -141 113 -90 5 -105 9 -121 29 -23 29
-23 82 1 111 17 22 27 24 104 24 90 0 122 -14 129 -56 5 -30 23 -22 21 9 -1
15 -14 37 -28 50 -23 19 -37 22 -120 22 -84 0 -97 -2 -122 -24z"/>
<path d="M1572 1253 c-45 -109 -82 -201 -82 -205 0 -5 5 -8 11 -8 5 0 21 25
34 55 l25 55 109 0 109 0 23 -55 c12 -30 29 -55 36 -55 7 0 13 3 12 8 0 4 -37
95 -83 202 -49 116 -88 196 -97 198 -11 2 -38 -52 -97 -195z m146 39 c23 -54
42 -101 42 -105 0 -4 -40 -7 -90 -7 -55 0 -90 4 -90 10 0 6 12 39 26 73 15 34
33 77 41 95 7 17 17 32 21 32 5 0 27 -44 50 -98z"/>
<path d="M1985 1441 c-11 -5 -29 -19 -40 -31 -17 -19 -20 -39 -23 -150 -5
-202 12 -223 185 -219 88 2 105 0 123 -16 26 -23 39 -12 16 14 -16 18 -16 22
-2 50 12 23 16 61 16 156 0 139 -10 173 -55 193 -29 13 -189 15 -220 3z m187
-21 c21 -6 42 -19 48 -30 11 -20 14 -258 4 -284 -8 -20 -30 -21 -38 -1 -3 8
-12 15 -21 15 -18 0 -19 -12 -3 -28 23 -23 -12 -33 -91 -29 -66 4 -77 7 -98
31 -21 25 -23 36 -23 150 0 109 2 126 20 149 11 14 30 28 43 30 44 8 123 7
159 -3z"/>
<path d="M2380 1286 c0 -107 4 -174 12 -191 19 -42 56 -55 157 -55 160 0 171
16 171 250 0 125 -3 161 -12 158 -10 -3 -14 -50 -18 -171 -5 -151 -7 -168 -26
-187 -36 -36 -184 -39 -230 -5 -17 12 -20 32 -24 186 -4 125 -8 174 -17 177
-10 3 -13 -34 -13 -162z"/>
<path d="M2840 1245 l0 -205 135 0 c83 0 135 4 135 10 0 6 -47 10 -120 10
l-120 0 0 85 0 84 77 3 c50 2 78 7 81 16 3 9 -17 12 -77 12 l-81 0 0 85 0 85
120 0 c73 0 120 4 120 10 0 6 -52 10 -135 10 l-135 0 0 -205z"/>
<path d="M3573 1440 c-41 -17 -57 -56 -61 -156 -6 -129 3 -181 38 -216 27 -27
32 -28 124 -28 143 0 166 18 166 130 l0 60 -56 0 c-68 0 -72 -23 -5 -28 l43
-3 -7 -46 c-4 -25 -9 -52 -12 -59 -16 -41 -196 -45 -236 -5 -20 20 -22 32 -22
156 0 127 1 136 23 157 20 20 32 23 111 23 95 0 126 -13 133 -58 5 -32 28 -33
28 -2 0 16 -12 38 -29 56 -28 28 -33 29 -123 28 -51 0 -103 -4 -115 -9z"/>
<path d="M3999 1435 c-39 -21 -49 -63 -49 -196 0 -180 16 -199 169 -199 155 0
171 19 171 198 0 136 -10 176 -51 197 -38 20 -204 20 -240 0z m200 -15 c55
-16 60 -31 60 -175 0 -94 -3 -135 -13 -148 -38 -50 -229 -48 -256 3 -16 29
-12 271 4 293 26 34 133 48 205 27z"/>
<path d="M4410 1244 c0 -160 3 -205 13 -202 8 3 13 33 15 91 l3 87 58 0 59 0
57 -90 c53 -84 75 -107 75 -78 0 6 -20 44 -45 84 -25 39 -45 74 -45 77 0 2 14
10 30 17 39 16 51 39 52 100 0 103 -24 120 -172 120 l-100 0 0 -206z m197 176
c47 -17 66 -75 43 -134 -12 -32 -65 -48 -145 -44 l-60 3 -3 93 -3 92 69 0 c38
0 83 -5 99 -10z"/>
</g>
</svg>
